<svg width="25" height="33" viewBox="0 0 25 33" fill="none" xmlns="http://www.w3.org/2000/svg">
<path fill-rule="evenodd" clip-rule="evenodd" d="M14.1484 1.64838C14.1484 0.738006 13.4104 0 12.5 0C11.5896 0 10.8516 0.738006 10.8516 1.64838V2.88467H9.93279C6.26502 2.88467 3.22935 5.73639 3.0004 9.39701L2.6361 15.2215C2.49721 17.4422 1.75166 19.5822 0.48066 21.4085C-0.667739 23.0586 0.354622 25.3377 2.3507 25.5772L7.96695 26.2511V28.0225C7.96695 30.5261 9.99647 32.5556 12.5 32.5556C15.0035 32.5556 17.0331 30.5261 17.0331 28.0225V26.2511L22.6493 25.5772C24.6454 25.3377 25.6677 23.0586 24.5193 21.4085C23.2483 19.5822 22.5028 17.4422 22.3639 15.2215L21.9996 9.39701C21.7706 5.7364 18.735 2.88467 15.0672 2.88467H14.1484V1.64838ZM9.93279 5.35725C7.57065 5.35725 5.61561 7.19383 5.46815 9.55136L5.10386 15.3759C4.93672 18.0481 4.03958 20.6233 2.51013 22.8209C2.42713 22.9402 2.50102 23.1049 2.64529 23.1222L8.80639 23.8616C11.26 24.156 13.74 24.156 16.1936 23.8616L22.3547 23.1222C22.499 23.1049 22.5729 22.9402 22.4899 22.8209C20.9604 20.6233 20.0633 18.0481 19.8961 15.3759L19.5318 9.55136C19.3844 7.19383 17.4293 5.35725 15.0672 5.35725H9.93279ZM12.5 30.083C11.362 30.083 10.4395 29.1605 10.4395 28.0225V26.7862H14.5605V28.0225C14.5605 29.1605 13.638 30.083 12.5 30.083Z" fill="white"/>
</svg>
