<svg width="25" height="28" viewBox="0 0 25 28" fill="none" xmlns="http://www.w3.org/2000/svg">
<path fill-rule="evenodd" clip-rule="evenodd" d="M14.8319 3.18317C13.5287 1.93272 11.4713 1.93272 10.1681 3.18317L3.24284 9.82836C3.07317 9.99117 2.95903 10.2033 2.91662 10.4346C2.08714 14.9579 2.02591 19.5888 2.73551 24.1325L2.90394 25.211H7.35937V15.9133C7.35937 15.2933 7.862 14.7907 8.48203 14.7907H16.518C17.138 14.7907 17.6406 15.2933 17.6406 15.9133V25.211H22.0961L22.2645 24.1325C22.9741 19.5888 22.9129 14.9579 22.0834 10.4346C22.041 10.2033 21.9268 9.99117 21.7572 9.82836L14.8319 3.18317ZM8.61352 1.56305C10.7854 -0.521017 14.2146 -0.521017 16.3865 1.56305L23.3118 8.20824C23.8215 8.69742 24.1645 9.33463 24.2919 10.0296C25.1669 14.8011 25.2315 19.686 24.4829 24.479L24.2124 26.2116C24.1005 26.9281 23.4833 27.4563 22.7581 27.4563H16.518C15.8979 27.4563 15.3953 26.9537 15.3953 26.3337V17.036H9.6047V26.3337C9.6047 26.9537 9.10207 27.4563 8.48203 27.4563H2.24191C1.51669 27.4563 0.899542 26.9281 0.787642 26.2116L0.517061 24.479C-0.231457 19.686 -0.16687 14.8011 0.708107 10.0296C0.835542 9.33463 1.17846 8.69742 1.68825 8.20824L8.61352 1.56305Z" fill="#00ECED"/>
</svg>
